<mxfile host="app.diagrams.net" agent="Mozilla/5.0 (Windows NT 10.0; Win64; x64) AppleWebKit/537.36 (KHTML, like Gecko) Chrome/135.0.0.0 Safari/537.36" version="26.2.10">
  <diagram name="Use Case Diagram" id="LtW3b2D6iqTIkvBCjVHQ">
    <mxGraphModel dx="466043" dy="389781" grid="1" gridSize="10" guides="1" tooltips="1" connect="1" arrows="1" fold="1" page="1" pageScale="1" pageWidth="850" pageHeight="1400" math="0" shadow="0">
      <root>
        <mxCell id="0" />
        <mxCell id="1" parent="0" />
        <mxCell id="eOyYqEXYC9Eeb9Hgv6LE-8" value="View Appointments" style="ellipse;whiteSpace=wrap;html=1;verticalAlign=middle;fontSize=12;spacingTop=1;" vertex="1" parent="1">
          <mxGeometry x="267.59000000000003" y="680.0035649158027" width="140.69" height="58.956435084197295" as="geometry" />
        </mxCell>
        <mxCell id="eOyYqEXYC9Eeb9Hgv6LE-12" value="Patient" style="shape=umlActor;verticalLabelPosition=bottom;verticalAlign=top;" vertex="1" parent="1">
          <mxGeometry x="100" y="133.62" width="30" height="60" as="geometry" />
        </mxCell>
        <mxCell id="eOyYqEXYC9Eeb9Hgv6LE-13" value="Doctor" style="shape=umlActor;verticalLabelPosition=bottom;verticalAlign=top;" vertex="1" parent="1">
          <mxGeometry x="640" y="300" width="40" height="60" as="geometry" />
        </mxCell>
        <mxCell id="eOyYqEXYC9Eeb9Hgv6LE-14" value="Admin" style="shape=umlActor;verticalLabelPosition=bottom;verticalAlign=top;" vertex="1" parent="1">
          <mxGeometry x="40" y="470" width="30" height="60" as="geometry" />
        </mxCell>
        <mxCell id="eOyYqEXYC9Eeb9Hgv6LE-15" style="endArrow=none;" edge="1" parent="1" source="eOyYqEXYC9Eeb9Hgv6LE-12" target="eOyYqEXYC9Eeb9Hgv6LE-2" />
        <mxCell id="eOyYqEXYC9Eeb9Hgv6LE-16" style="endArrow=none;" edge="1" parent="1" source="eOyYqEXYC9Eeb9Hgv6LE-12" target="eOyYqEXYC9Eeb9Hgv6LE-3" />
        <mxCell id="eOyYqEXYC9Eeb9Hgv6LE-17" style="endArrow=none;" edge="1" parent="1" source="eOyYqEXYC9Eeb9Hgv6LE-12" target="eOyYqEXYC9Eeb9Hgv6LE-4" />
        <mxCell id="eOyYqEXYC9Eeb9Hgv6LE-18" style="endArrow=none;" edge="1" parent="1" source="eOyYqEXYC9Eeb9Hgv6LE-12" target="eOyYqEXYC9Eeb9Hgv6LE-5" />
        <mxCell id="eOyYqEXYC9Eeb9Hgv6LE-19" style="endArrow=none;" edge="1" parent="1" source="eOyYqEXYC9Eeb9Hgv6LE-12" target="eOyYqEXYC9Eeb9Hgv6LE-6" />
        <mxCell id="eOyYqEXYC9Eeb9Hgv6LE-20" style="endArrow=none;" edge="1" parent="1" source="eOyYqEXYC9Eeb9Hgv6LE-13" target="eOyYqEXYC9Eeb9Hgv6LE-3" />
        <mxCell id="eOyYqEXYC9Eeb9Hgv6LE-21" style="endArrow=none;" edge="1" parent="1" source="eOyYqEXYC9Eeb9Hgv6LE-13" target="eOyYqEXYC9Eeb9Hgv6LE-7" />
        <mxCell id="eOyYqEXYC9Eeb9Hgv6LE-22" style="endArrow=none;" edge="1" parent="1" source="eOyYqEXYC9Eeb9Hgv6LE-13" target="eOyYqEXYC9Eeb9Hgv6LE-8" />
        <mxCell id="eOyYqEXYC9Eeb9Hgv6LE-23" style="endArrow=none;" edge="1" parent="1" source="eOyYqEXYC9Eeb9Hgv6LE-13" target="eOyYqEXYC9Eeb9Hgv6LE-9" />
        <mxCell id="eOyYqEXYC9Eeb9Hgv6LE-24" style="endArrow=none;" edge="1" parent="1" source="eOyYqEXYC9Eeb9Hgv6LE-13" target="eOyYqEXYC9Eeb9Hgv6LE-10" />
        <mxCell id="eOyYqEXYC9Eeb9Hgv6LE-25" style="endArrow=none;" edge="1" parent="1" source="eOyYqEXYC9Eeb9Hgv6LE-14" target="eOyYqEXYC9Eeb9Hgv6LE-3" />
        <mxCell id="eOyYqEXYC9Eeb9Hgv6LE-26" style="endArrow=none;" edge="1" parent="1" source="eOyYqEXYC9Eeb9Hgv6LE-14" target="eOyYqEXYC9Eeb9Hgv6LE-11" />
        <mxCell id="eOyYqEXYC9Eeb9Hgv6LE-31" value="" style="group" vertex="1" connectable="0" parent="1">
          <mxGeometry x="270" y="70" width="230" height="770" as="geometry" />
        </mxCell>
        <mxCell id="eOyYqEXYC9Eeb9Hgv6LE-34" value="" style="rounded=0;whiteSpace=wrap;html=1;" vertex="1" parent="eOyYqEXYC9Eeb9Hgv6LE-31">
          <mxGeometry x="-40" width="270" height="770" as="geometry" />
        </mxCell>
        <mxCell id="eOyYqEXYC9Eeb9Hgv6LE-4" value="Book Appointment" style="ellipse;whiteSpace=wrap;html=1;verticalAlign=middle;fontSize=12;spacingTop=1;" vertex="1" parent="eOyYqEXYC9Eeb9Hgv6LE-31">
          <mxGeometry x="35.17327586206893" y="161.89744703056255" width="123.10344827586208" height="65.86878262561476" as="geometry" />
        </mxCell>
        <mxCell id="eOyYqEXYC9Eeb9Hgv6LE-5" value="View Health Records" style="ellipse;whiteSpace=wrap;html=1;verticalAlign=middle;fontSize=12;spacingTop=1;" vertex="1" parent="eOyYqEXYC9Eeb9Hgv6LE-31">
          <mxGeometry x="35.17327586206893" y="237.45911762674376" width="123.10344827586208" height="65.86878262561476" as="geometry" />
        </mxCell>
        <mxCell id="eOyYqEXYC9Eeb9Hgv6LE-11" value="Generate Appointment Report" style="ellipse;whiteSpace=wrap;html=1;verticalAlign=middle;fontSize=12;spacingTop=1;" vertex="1" parent="eOyYqEXYC9Eeb9Hgv6LE-31">
          <mxGeometry x="-1.73" y="710.0024798606219" width="193.45000000000002" height="47.90456918226528" as="geometry" />
        </mxCell>
        <mxCell id="eOyYqEXYC9Eeb9Hgv6LE-6" value="Set Medication Reminder" style="ellipse;whiteSpace=wrap;html=1;verticalAlign=middle;fontSize=12;spacingTop=1;" vertex="1" parent="eOyYqEXYC9Eeb9Hgv6LE-31">
          <mxGeometry x="35.17327586206893" y="311.90571621385595" width="123.10344827586208" height="65.86878262561476" as="geometry" />
        </mxCell>
        <mxCell id="eOyYqEXYC9Eeb9Hgv6LE-9" value="Update Health Records" style="ellipse;whiteSpace=wrap;html=1;verticalAlign=middle;fontSize=12;spacingTop=1;" vertex="1" parent="eOyYqEXYC9Eeb9Hgv6LE-31">
          <mxGeometry x="24.649310344827537" y="550.0022538412633" width="140.6896551724138" height="63.862717455377975" as="geometry" />
        </mxCell>
        <mxCell id="eOyYqEXYC9Eeb9Hgv6LE-10" value="Generate Patient Report" style="ellipse;whiteSpace=wrap;html=1;verticalAlign=middle;fontSize=12;spacingTop=1;" vertex="1" parent="eOyYqEXYC9Eeb9Hgv6LE-31">
          <mxGeometry x="24.649310344827565" y="630.0010030250513" width="140.6896551724138" height="63.862717455377975" as="geometry" />
        </mxCell>
        <mxCell id="eOyYqEXYC9Eeb9Hgv6LE-3" value="Login" style="ellipse;whiteSpace=wrap;html=1;verticalAlign=middle;fontSize=12;spacingTop=1;" vertex="1" parent="eOyYqEXYC9Eeb9Hgv6LE-31">
          <mxGeometry x="35.17241379310346" y="86.34200851043086" width="123.10344827586209" height="63.862717455377975" as="geometry" />
        </mxCell>
        <mxCell id="eOyYqEXYC9Eeb9Hgv6LE-2" value="Register" style="ellipse;whiteSpace=wrap;html=1;verticalAlign=middle;fontSize=12;spacingTop=1;" vertex="1" parent="eOyYqEXYC9Eeb9Hgv6LE-31">
          <mxGeometry x="35.17241379310342" y="10.793698724852614" width="123.10344827586209" height="63.862717455377975" as="geometry" />
        </mxCell>
        <mxCell id="eOyYqEXYC9Eeb9Hgv6LE-7" value="Manage Profile" style="ellipse;whiteSpace=wrap;html=1;verticalAlign=middle;fontSize=12;spacingTop=1;" vertex="1" parent="eOyYqEXYC9Eeb9Hgv6LE-31">
          <mxGeometry x="24.649310344827487" y="470.0040564361918" width="140.6896551724138" height="63.862717455377975" as="geometry" />
        </mxCell>
        <mxCell id="eOyYqEXYC9Eeb9Hgv6LE-43" value="View Appointments" style="ellipse;whiteSpace=wrap;html=1;verticalAlign=middle;fontSize=12;spacingTop=1;" vertex="1" parent="eOyYqEXYC9Eeb9Hgv6LE-31">
          <mxGeometry x="33.44327586206893" y="389.9991176267438" width="123.10344827586208" height="65.86878262561476" as="geometry" />
        </mxCell>
        <mxCell id="eOyYqEXYC9Eeb9Hgv6LE-35" value="" style="endArrow=none;html=1;rounded=0;entryX=0;entryY=0.5;entryDx=0;entryDy=0;" edge="1" parent="1" source="eOyYqEXYC9Eeb9Hgv6LE-12" target="eOyYqEXYC9Eeb9Hgv6LE-2">
          <mxGeometry width="50" height="50" relative="1" as="geometry">
            <mxPoint x="450" y="210" as="sourcePoint" />
            <mxPoint x="500" y="160" as="targetPoint" />
          </mxGeometry>
        </mxCell>
        <mxCell id="eOyYqEXYC9Eeb9Hgv6LE-36" value="" style="endArrow=none;html=1;rounded=0;entryX=0;entryY=0.5;entryDx=0;entryDy=0;" edge="1" parent="1" target="eOyYqEXYC9Eeb9Hgv6LE-3">
          <mxGeometry width="50" height="50" relative="1" as="geometry">
            <mxPoint x="130" y="164" as="sourcePoint" />
            <mxPoint x="500" y="160" as="targetPoint" />
          </mxGeometry>
        </mxCell>
        <mxCell id="eOyYqEXYC9Eeb9Hgv6LE-37" value="" style="endArrow=none;html=1;rounded=0;entryX=0;entryY=0.5;entryDx=0;entryDy=0;" edge="1" parent="1" target="eOyYqEXYC9Eeb9Hgv6LE-4">
          <mxGeometry width="50" height="50" relative="1" as="geometry">
            <mxPoint x="130" y="160" as="sourcePoint" />
            <mxPoint x="500" y="160" as="targetPoint" />
          </mxGeometry>
        </mxCell>
        <mxCell id="eOyYqEXYC9Eeb9Hgv6LE-38" value="" style="endArrow=none;html=1;rounded=0;entryX=0;entryY=0.5;entryDx=0;entryDy=0;" edge="1" parent="1" target="eOyYqEXYC9Eeb9Hgv6LE-6">
          <mxGeometry width="50" height="50" relative="1" as="geometry">
            <mxPoint x="130" y="160" as="sourcePoint" />
            <mxPoint x="500" y="160" as="targetPoint" />
          </mxGeometry>
        </mxCell>
        <mxCell id="eOyYqEXYC9Eeb9Hgv6LE-39" value="" style="endArrow=none;html=1;rounded=0;entryX=0;entryY=0.5;entryDx=0;entryDy=0;" edge="1" parent="1" target="eOyYqEXYC9Eeb9Hgv6LE-5">
          <mxGeometry width="50" height="50" relative="1" as="geometry">
            <mxPoint x="130" y="160" as="sourcePoint" />
            <mxPoint x="500" y="160" as="targetPoint" />
          </mxGeometry>
        </mxCell>
        <mxCell id="eOyYqEXYC9Eeb9Hgv6LE-40" value="" style="endArrow=none;html=1;rounded=0;entryX=0;entryY=0.3333333333333333;entryDx=0;entryDy=0;entryPerimeter=0;exitX=1;exitY=0.5;exitDx=0;exitDy=0;" edge="1" parent="1" source="eOyYqEXYC9Eeb9Hgv6LE-43" target="eOyYqEXYC9Eeb9Hgv6LE-13">
          <mxGeometry width="50" height="50" relative="1" as="geometry">
            <mxPoint x="560" y="715" as="sourcePoint" />
            <mxPoint x="500" y="250" as="targetPoint" />
          </mxGeometry>
        </mxCell>
        <mxCell id="eOyYqEXYC9Eeb9Hgv6LE-41" value="" style="endArrow=none;html=1;rounded=0;entryX=0;entryY=0.3333333333333333;entryDx=0;entryDy=0;entryPerimeter=0;exitX=1;exitY=0.5;exitDx=0;exitDy=0;" edge="1" parent="1" source="eOyYqEXYC9Eeb9Hgv6LE-7" target="eOyYqEXYC9Eeb9Hgv6LE-13">
          <mxGeometry width="50" height="50" relative="1" as="geometry">
            <mxPoint x="450" y="300" as="sourcePoint" />
            <mxPoint x="500" y="250" as="targetPoint" />
          </mxGeometry>
        </mxCell>
        <mxCell id="eOyYqEXYC9Eeb9Hgv6LE-42" value="" style="endArrow=none;html=1;rounded=0;exitX=1;exitY=0.5;exitDx=0;exitDy=0;" edge="1" parent="1" source="eOyYqEXYC9Eeb9Hgv6LE-3" target="eOyYqEXYC9Eeb9Hgv6LE-13">
          <mxGeometry width="50" height="50" relative="1" as="geometry">
            <mxPoint x="450" y="300" as="sourcePoint" />
            <mxPoint x="500" y="250" as="targetPoint" />
          </mxGeometry>
        </mxCell>
        <mxCell id="eOyYqEXYC9Eeb9Hgv6LE-44" value="" style="endArrow=none;html=1;rounded=0;exitX=1;exitY=0.5;exitDx=0;exitDy=0;" edge="1" parent="1" source="eOyYqEXYC9Eeb9Hgv6LE-10">
          <mxGeometry width="50" height="50" relative="1" as="geometry">
            <mxPoint x="450" y="480" as="sourcePoint" />
            <mxPoint x="640" y="317.5" as="targetPoint" />
          </mxGeometry>
        </mxCell>
        <mxCell id="eOyYqEXYC9Eeb9Hgv6LE-45" value="" style="endArrow=none;html=1;rounded=0;entryX=0;entryY=0.3333333333333333;entryDx=0;entryDy=0;entryPerimeter=0;exitX=1;exitY=0.5;exitDx=0;exitDy=0;" edge="1" parent="1" source="eOyYqEXYC9Eeb9Hgv6LE-9" target="eOyYqEXYC9Eeb9Hgv6LE-13">
          <mxGeometry width="50" height="50" relative="1" as="geometry">
            <mxPoint x="450" y="480" as="sourcePoint" />
            <mxPoint x="500" y="430" as="targetPoint" />
          </mxGeometry>
        </mxCell>
        <mxCell id="eOyYqEXYC9Eeb9Hgv6LE-46" value="" style="endArrow=none;html=1;rounded=0;entryX=0;entryY=0.5;entryDx=0;entryDy=0;" edge="1" parent="1" target="eOyYqEXYC9Eeb9Hgv6LE-3">
          <mxGeometry width="50" height="50" relative="1" as="geometry">
            <mxPoint x="80" y="510" as="sourcePoint" />
            <mxPoint x="200" y="390" as="targetPoint" />
          </mxGeometry>
        </mxCell>
        <mxCell id="eOyYqEXYC9Eeb9Hgv6LE-47" value="" style="endArrow=none;html=1;rounded=0;entryX=0;entryY=0.5;entryDx=0;entryDy=0;" edge="1" parent="1" target="eOyYqEXYC9Eeb9Hgv6LE-11">
          <mxGeometry width="50" height="50" relative="1" as="geometry">
            <mxPoint x="80" y="510" as="sourcePoint" />
            <mxPoint x="500" y="250" as="targetPoint" />
          </mxGeometry>
        </mxCell>
      </root>
    </mxGraphModel>
  </diagram>
</mxfile>
